<svg width="512" height="512" viewBox="0 0 512 512" fill="none" xmlns="http://www.w3.org/2000/svg">
<path d="M70.8642 507.345V403.41H137.792C154.524 403.41 169.615 400.014 183.066 393.221C196.517 385.975 208 376.012 217.514 363.331C227.028 350.198 234.246 334.573 239.167 316.459C244.088 297.891 246.549 277.511 246.549 255.32C246.549 232.224 244.088 211.618 239.167 193.503C234.246 175.388 227.028 159.991 217.514 147.31C208 134.63 196.517 125.119 183.066 118.779C169.615 111.986 154.524 108.59 137.792 108.59H70.8642V4.65454H133.363C165.842 4.65454 194.22 11.2213 218.498 24.3546C242.776 37.488 263.117 55.3765 279.52 78.0202C295.924 100.664 308.063 126.704 315.937 156.141C324.138 185.125 328.24 215.694 328.24 247.848V262.793C328.24 292.682 324.138 322.346 315.937 351.783C308.063 380.767 295.924 407.033 279.52 430.584C263.117 453.679 242.776 472.247 218.498 486.286C194.22 500.325 165.842 507.345 133.363 507.345H70.8642ZM0 507.345V4.65454H80.7067V507.345H0Z" fill="#666666"/>
<path d="M160.92 504.629L283.456 240.376L284.44 251.924L171.254 8.73096H259.835L329.715 163.614H341.033L409.929 8.73096H496.048L382.37 253.283L380.894 242.414L507.367 504.629H418.295L336.604 329.366H324.793L247.039 504.629H160.92Z" fill="white"/>
</svg>
