<svg width="56" height="40" viewBox="0 0 56 40" fill="none" xmlns="http://www.w3.org/2000/svg">
<path d="M7.7918 40V31.7297H15.1507C16.9904 31.7297 18.6498 31.4595 20.1288 30.9189C21.6078 30.3423 22.8704 29.5495 23.9165 28.5405C24.9626 27.4955 25.7562 26.2522 26.2973 24.8108C26.8384 23.3333 27.109 21.7117 27.109 19.9459C27.109 18.1081 26.8384 16.4685 26.2973 15.027C25.7562 13.5856 24.9626 12.3604 23.9165 11.3514C22.8704 10.3423 21.6078 9.58559 20.1288 9.08108C18.6498 8.54054 16.9904 8.27027 15.1507 8.27027H7.7918V0H14.6637C18.235 0 21.3553 0.522524 24.0247 1.56757C26.6941 2.61261 28.9306 4.03604 30.7343 5.83784C32.538 7.63964 33.8727 9.71171 34.7384 12.0541C35.6402 14.3604 36.0912 16.7928 36.0912 19.3514V20.5405C36.0912 22.9189 35.6402 25.2793 34.7384 27.6216C33.8727 29.9279 32.538 32.018 30.7343 33.8919C28.9306 35.7297 26.6941 37.2072 24.0247 38.3243C21.3553 39.4414 18.235 40 14.6637 40H7.7918ZM0 40V0H8.87399V40H0Z" fill="#666666"/>
<path d="M17.6936 39.7838L31.1669 18.7568L31.2751 19.6757L18.8299 0.324377H28.5696L36.2532 12.6487H37.4977L45.0731 0.324377H54.5423L42.043 19.7838L41.8806 18.919L55.7868 39.7838H45.993L37.0108 25.8379H35.7121L27.1628 39.7838H17.6936Z" fill="white"/>
</svg>
