<svg width="64" height="64" viewBox="0 0 64 64" fill="none" xmlns="http://www.w3.org/2000/svg">
<rect x="0.5" y="0.5" width="63" height="63" rx="31.5" fill="url(#paint0_linear_2_7432)"/>
<rect x="0.5" y="0.5" width="63" height="63" rx="31.5" stroke="url(#paint1_linear_2_7432)"/>
<rect x="21.5" y="21.5" width="21" height="21" rx="6" fill="url(#paint2_radial_2_7432)"/>
<rect x="21.5" y="21.5" width="21" height="21" rx="6" fill="url(#paint3_radial_2_7432)"/>
<rect x="21.5" y="21.5" width="21" height="21" rx="6" fill="white"/>
<path d="M37.25 27.875C37.25 28.4963 36.7463 29 36.125 29C35.5037 29 35 28.4963 35 27.875C35 27.2537 35.5037 26.75 36.125 26.75C36.7463 26.75 37.25 27.2537 37.25 27.875Z" fill="#1A1A1A"/>
<path fill-rule="evenodd" clip-rule="evenodd" d="M32 35.75C34.0711 35.75 35.75 34.0711 35.75 32C35.75 29.9289 34.0711 28.25 32 28.25C29.9289 28.25 28.25 29.9289 28.25 32C28.25 34.0711 29.9289 35.75 32 35.75ZM32 34.25C33.2426 34.25 34.25 33.2426 34.25 32C34.25 30.7574 33.2426 29.75 32 29.75C30.7574 29.75 29.75 30.7574 29.75 32C29.75 33.2426 30.7574 34.25 32 34.25Z" fill="#1A1A1A"/>
<path fill-rule="evenodd" clip-rule="evenodd" d="M24.5 31.7C24.5 29.1798 24.5 27.9196 24.9905 26.957C25.4219 26.1103 26.1103 25.4219 26.957 24.9905C27.9196 24.5 29.1798 24.5 31.7 24.5H32.3C34.8202 24.5 36.0804 24.5 37.043 24.9905C37.8897 25.4219 38.5781 26.1103 39.0095 26.957C39.5 27.9196 39.5 29.1798 39.5 31.7V32.3C39.5 34.8202 39.5 36.0804 39.0095 37.043C38.5781 37.8897 37.8897 38.5781 37.043 39.0095C36.0804 39.5 34.8202 39.5 32.3 39.5H31.7C29.1798 39.5 27.9196 39.5 26.957 39.0095C26.1103 38.5781 25.4219 37.8897 24.9905 37.043C24.5 36.0804 24.5 34.8202 24.5 32.3V31.7ZM31.7 26H32.3C33.5849 26 34.4583 26.0012 35.1334 26.0563C35.7911 26.1101 36.1274 26.2074 36.362 26.327C36.9265 26.6146 37.3854 27.0735 37.673 27.638C37.7926 27.8726 37.8899 28.2089 37.9437 28.8666C37.9988 29.5417 38 30.4151 38 31.7V32.3C38 33.5849 37.9988 34.4583 37.9437 35.1334C37.8899 35.7911 37.7926 36.1274 37.673 36.362C37.3854 36.9265 36.9265 37.3854 36.362 37.673C36.1274 37.7926 35.7911 37.8899 35.1334 37.9437C34.4583 37.9988 33.5849 38 32.3 38H31.7C30.4151 38 29.5417 37.9988 28.8666 37.9437C28.2089 37.8899 27.8726 37.7926 27.638 37.673C27.0735 37.3854 26.6146 36.9265 26.327 36.362C26.2074 36.1274 26.1101 35.7911 26.0563 35.1334C26.0012 34.4583 26 33.5849 26 32.3V31.7C26 30.4151 26.0012 29.5417 26.0563 28.8666C26.1101 28.2089 26.2074 27.8726 26.327 27.638C26.6146 27.0735 27.0735 26.6146 27.638 26.327C27.8726 26.2074 28.2089 26.1101 28.8666 26.0563C29.5417 26.0012 30.4151 26 31.7 26Z" fill="#1A1A1A"/>
<defs>
<linearGradient id="paint0_linear_2_7432" x1="32" y1="0" x2="32" y2="64" gradientUnits="userSpaceOnUse">
<stop stop-color="#1A1A1A"/>
<stop offset="1" stop-color="#1A1A1A" stop-opacity="0"/>
</linearGradient>
<linearGradient id="paint1_linear_2_7432" x1="32" y1="0" x2="32" y2="64" gradientUnits="userSpaceOnUse">
<stop stop-color="#262626"/>
<stop offset="1" stop-color="#262626" stop-opacity="0"/>
</linearGradient>
<radialGradient id="paint2_radial_2_7432" cx="0" cy="0" r="1" gradientUnits="userSpaceOnUse" gradientTransform="translate(29 37.25) rotate(-55.3758) scale(19.1397)">
<stop stop-color="#B13589"/>
<stop offset="0.79309" stop-color="#C62F94"/>
<stop offset="1" stop-color="#8A3AC8"/>
</radialGradient>
<radialGradient id="paint3_radial_2_7432" cx="0" cy="0" r="1" gradientUnits="userSpaceOnUse" gradientTransform="translate(28.25 43.25) rotate(-65.1363) scale(16.9457)">
<stop stop-color="#E0E8B7"/>
<stop offset="0.444662" stop-color="#FB8A2E"/>
<stop offset="0.71474" stop-color="#E2425C"/>
<stop offset="1" stop-color="#E2425C" stop-opacity="0"/>
</radialGradient>
</defs>
</svg>
