<svg width="167" height="167" viewBox="0 0 167 167" fill="none" xmlns="http://www.w3.org/2000/svg">
<g filter="url(#filter0_i_2_7050)">
<path d="M41.8333 83.4998L83.5 41.8332L125.167 83.4998L83.5 125.167L41.8333 83.4998Z" fill="white" fill-opacity="0.02"/>
<path d="M41.8333 83.4998L83.5 41.8332L125.167 83.4998L83.5 125.167L41.8333 83.4998Z" fill="url(#paint0_linear_2_7050)" fill-opacity="0.2"/>
<path d="M166.833 33.4998V83.4998L83.5 0.166504H133.5L166.833 33.4998Z" fill="white" fill-opacity="0.02"/>
<path d="M166.833 33.4998V83.4998L83.5 0.166504H133.5L166.833 33.4998Z" fill="url(#paint1_linear_2_7050)" fill-opacity="0.2"/>
<path d="M166.833 133.5V83.4998L83.5 166.833H133.5L166.833 133.5Z" fill="white" fill-opacity="0.02"/>
<path d="M166.833 133.5V83.4998L83.5 166.833H133.5L166.833 133.5Z" fill="url(#paint2_linear_2_7050)" fill-opacity="0.2"/>
<path d="M0.166656 133.5V83.4998L83.5 166.833H33.5L0.166656 133.5Z" fill="white" fill-opacity="0.02"/>
<path d="M0.166656 133.5V83.4998L83.5 166.833H33.5L0.166656 133.5Z" fill="url(#paint3_linear_2_7050)" fill-opacity="0.2"/>
<path d="M0.166656 33.4998V83.4998L83.5 0.166504H33.5L0.166656 33.4998Z" fill="white" fill-opacity="0.02"/>
<path d="M0.166656 33.4998V83.4998L83.5 0.166504H33.5L0.166656 33.4998Z" fill="url(#paint4_linear_2_7050)" fill-opacity="0.2"/>
</g>
<defs>
<filter id="filter0_i_2_7050" x="0.166656" y="0.166504" width="166.667" height="166.667" filterUnits="userSpaceOnUse" color-interpolation-filters="sRGB">
<feFlood flood-opacity="0" result="BackgroundImageFix"/>
<feBlend mode="normal" in="SourceGraphic" in2="BackgroundImageFix" result="shape"/>
<feColorMatrix in="SourceAlpha" type="matrix" values="0 0 0 0 0 0 0 0 0 0 0 0 0 0 0 0 0 0 127 0" result="hardAlpha"/>
<feOffset/>
<feGaussianBlur stdDeviation="6"/>
<feComposite in2="hardAlpha" operator="arithmetic" k2="-1" k3="1"/>
<feColorMatrix type="matrix" values="0 0 0 0 1 0 0 0 0 1 0 0 0 0 1 0 0 0 0.2 0"/>
<feBlend mode="normal" in2="shape" result="effect1_innerShadow_2_7050"/>
</filter>
<linearGradient id="paint0_linear_2_7050" x1="83.5" y1="-79.9783" x2="83.5" y2="166.833" gradientUnits="userSpaceOnUse">
<stop stop-color="white"/>
<stop offset="0.773658" stop-color="white" stop-opacity="0"/>
</linearGradient>
<linearGradient id="paint1_linear_2_7050" x1="83.5" y1="-79.9783" x2="83.5" y2="166.833" gradientUnits="userSpaceOnUse">
<stop stop-color="white"/>
<stop offset="0.773658" stop-color="white" stop-opacity="0"/>
</linearGradient>
<linearGradient id="paint2_linear_2_7050" x1="83.5" y1="-79.9783" x2="83.5" y2="166.833" gradientUnits="userSpaceOnUse">
<stop stop-color="white"/>
<stop offset="0.773658" stop-color="white" stop-opacity="0"/>
</linearGradient>
<linearGradient id="paint3_linear_2_7050" x1="83.5" y1="-79.9783" x2="83.5" y2="166.833" gradientUnits="userSpaceOnUse">
<stop stop-color="white"/>
<stop offset="0.773658" stop-color="white" stop-opacity="0"/>
</linearGradient>
<linearGradient id="paint4_linear_2_7050" x1="83.5" y1="-79.9783" x2="83.5" y2="166.833" gradientUnits="userSpaceOnUse">
<stop stop-color="white"/>
<stop offset="0.773658" stop-color="white" stop-opacity="0"/>
</linearGradient>
</defs>
</svg>
