<svg width="64" height="64" viewBox="0 0 64 64" fill="none" xmlns="http://www.w3.org/2000/svg">
<rect x="0.5" y="0.5" width="63" height="63" rx="31.5" fill="url(#paint0_linear_2_7438)"/>
<rect x="0.5" y="0.5" width="63" height="63" rx="31.5" stroke="url(#paint1_linear_2_7438)"/>
<path d="M27.5879 41.6196C36.5348 41.6196 41.4284 34.207 41.4284 27.7791C41.4284 27.5686 41.4284 27.3589 41.4142 27.1503C42.3662 26.4616 43.1879 25.6092 43.8409 24.6323C42.9532 25.0257 42.0114 25.2838 41.0469 25.3976C42.0625 24.7896 42.8225 23.8336 43.1855 22.7071C42.2306 23.2738 41.186 23.6732 40.0967 23.8879C38.2545 21.9289 35.1731 21.8344 33.2141 23.6766C31.9507 24.8647 31.4149 26.635 31.8069 28.3244C27.8961 28.1282 24.252 26.2809 21.782 23.2419C20.4909 25.4645 21.1503 28.3081 23.2881 29.7354C22.5138 29.7125 21.7567 29.5036 21.0802 29.1266C21.0802 29.1466 21.0802 29.1674 21.0802 29.1882C21.0807 31.5038 22.713 33.4981 24.9828 33.9567C24.2668 34.1519 23.5152 34.1806 22.7862 34.0402C23.4235 36.0218 25.2496 37.3793 27.3308 37.4183C25.6082 38.7721 23.4804 39.5068 21.2896 39.5047C20.9027 39.5039 20.5162 39.4805 20.1318 39.4344C22.3563 40.8619 24.9448 41.6191 27.5879 41.6156" fill="white"/>
<defs>
<linearGradient id="paint0_linear_2_7438" x1="32" y1="0" x2="32" y2="64" gradientUnits="userSpaceOnUse">
<stop stop-color="#1A1A1A"/>
<stop offset="1" stop-color="#1A1A1A" stop-opacity="0"/>
</linearGradient>
<linearGradient id="paint1_linear_2_7438" x1="32" y1="0" x2="32" y2="64" gradientUnits="userSpaceOnUse">
<stop stop-color="#262626"/>
<stop offset="1" stop-color="#262626" stop-opacity="0"/>
</linearGradient>
</defs>
</svg>
